<svg width="14" height="21" viewBox="0 0 14 21" fill="none" xmlns="http://www.w3.org/2000/svg">
<path d="M13.9516 15.2494L7.66769 0.856271L7.41982 0.294143C7.38043 0.205306 7.32041 0.130781 7.24642 0.078854C7.17244 0.0269271 7.08739 -0.000367744 7.00074 3.74198e-06H6.99959C6.82206 3.74198e-06 6.65991 0.114648 6.58108 0.296124L0.0494503 15.2488C-0.00122551 15.3649 -0.0130454 15.4984 0.016239 15.6239C0.0455235 15.7494 0.113869 15.8581 0.208272 15.9294L6.7399 20.9097C6.81721 20.9687 6.90796 21.0001 7.00074 21C7.09352 21.0001 7.18427 20.9687 7.26158 20.9097L13.7926 15.9294C13.887 15.8582 13.9554 15.7496 13.9847 15.6243C14.014 15.4989 14.0022 15.3655 13.9516 15.2494ZM1.07238 15.3046L6.89585 1.97247L6.91146 19.7663L1.07238 15.3046Z" fill="black"/>
</svg>
